<svg id="Layer_1_copy" data-name="Layer 1 copy" xmlns="http://www.w3.org/2000/svg" viewBox="0 0 323 373.89"><defs><style>.cls-1{fill:#fff;}</style></defs><title>food-pin</title><circle class="cls-1" cx="161.5" cy="161.5" r="151.5"/><path d="M845,298.72c0-89.05-72.45-161.5-161.5-161.5S522,209.67,522,298.72c0,77.51,54.89,142.43,127.84,158l30.52,52.87a3.13,3.13,0,0,0,5.43,0l30.4-52.65C789.62,441.73,845,376.57,845,298.72ZM683.5,440.22c-78,0-141.5-63.48-141.5-141.5s63.48-141.5,141.5-141.5S825,220.69,825,298.72,761.52,440.22,683.5,440.22Z" transform="translate(-522 -137.22)"/><path d="M659.08,329.78q21-27.86,42-55.68a6.48,6.48,0,0,0,1.05-7.1c-4.48-11.39-2.62-22.5,3.49-32.77a57.62,57.62,0,0,1,32.85-26.06,39.41,39.41,0,0,1,11.14-1.81c9.27-.16,15.71,4.77,18.34,13.66,2.42,8.22,1.58,16.47-.67,24.64-3.36,12.22-9.27,22.88-19.73,30.51-7.69,5.61-16.2,8.55-25.76,7.29-2.48-.33-3.92.89-5.3,2.74Q695.88,312.64,675.21,340l-43,57c-3.61,4.8-6.74,5.27-11.45,1.74-7.92-5.94-8.11-7.44-2-15.56Z" transform="translate(-522 -137.22)"/><path d="M696.5,334.44Q673.22,307.74,650,281a8.17,8.17,0,0,0-6.49-3.22c-8-.28-14.35-4-19.07-10.41-9.9-13.38-19.71-26.84-29.56-40.27a8.39,8.39,0,0,1-1.52-2.26,3.62,3.62,0,0,1,.1-2.71c.93-1.33,1.82-.4,2.61.48,5.93,6.61,11.89,13.18,17.81,19.79,4.33,4.84,8.62,9.72,12.93,14.58.55.62,1,1.46,1.72,1.73a10.54,10.54,0,0,0,3,.26c0-.94.4-2.08,0-2.77a31.55,31.55,0,0,0-3.24-4.07c-9.15-11-18.33-21.88-27.42-32.88-.59-.71-1.07-2.44-.69-2.87,1.4-1.56,2.19.21,3,1q15.49,16.9,30.91,33.85c.31.34.55.86.93,1,1.09.36,2.23.56,3.35.83-.11-1.15.2-2.62-.39-3.38C634,244.84,630,240.1,626,235.32q-9.24-11.06-18.49-22.1c-.72-.86-2.05-1.86-.46-2.86.48-.3,2,.33,2.54.95q15.73,17,31.33,34.2a6,6,0,0,0,1.8,1.63c.66.27,1.88.35,2.23,0a2.78,2.78,0,0,0,.44-2.42,11.57,11.57,0,0,0-2.1-2.84q-14.58-17.15-29.18-34.28c-.79-.92-2-1.74-.49-3.16s2.33-.22,3.21.63c10.06,9.73,20.15,19.44,30.12,29.26a115.09,115.09,0,0,1,11.17,12A20.77,20.77,0,0,1,662,262.17a6.71,6.71,0,0,0,2,5.9q46.87,53.65,93.65,107.39a13,13,0,0,1,2.69,4.07c1.13,3.34-.59,5.76-3.13,7.82-3,2.44-5.63,6-10.24,3.88a11.44,11.44,0,0,1-3.49-3Q719.93,361.36,696.5,334.44Z" transform="translate(-522 -137.22)"/></svg>