<?xml version="1.0" encoding="UTF-8"?>
<svg width="50px" height="60px" viewBox="0 0 50 60" version="1.1" xmlns="http://www.w3.org/2000/svg" xmlns:xlink="http://www.w3.org/1999/xlink">
    <!-- Generator: Sketch 44.1 (41455) - http://www.bohemiancoding.com/sketch -->
    <title>Artboard</title>
    <desc>Created with Sketch.</desc>
    <defs></defs>
    <g id="Page-1" stroke="none" stroke-width="1" fill="none" fill-rule="evenodd">
        <g id="Artboard">
            <g id="Group">
                <circle id="Oval" fill="#FFFFFF" cx="25" cy="25" r="25"></circle>
                <path d="M25,50 C11.2142857,50 0,38.7857143 0,25 C0,11.2142857 11.2142857,0 25,0 C38.7857143,0 50,11.2142857 50,25 C50,38.7857143 38.7857143,50 25,50 Z M25,1.62337662 C12.1103896,1.62337662 1.62337662,12.1103896 1.62337662,25 C1.62337662,37.8896104 12.1103896,48.3766234 25,48.3766234 C37.8896104,48.3766234 48.3766234,37.8896104 48.3766234,25 C48.3766234,12.1103896 37.8896104,1.62337662 25,1.62337662 Z" id="Shape" fill="#FF0000" fill-rule="nonzero"></path>
                <path d="M25.2613636,57.8717532 L30.5064935,48.7808442 L19.4935065,48.7808442 L24.7386364,57.8717532 C24.7926083,57.9650485 24.8922179,58.0225005 25,58.0225005 C25.1077821,58.0225005 25.2073917,57.9650485 25.2613636,57.8717532 L25.2613636,57.8717532 Z" id="Shape" fill="#FF0000" fill-rule="nonzero"></path>
                <path d="M20.7922078,29.6720779 C23.0649351,26.6569264 25.3376623,23.6439394 27.6103896,20.6331169 C27.8942171,20.3183401 27.961412,19.8639745 27.7808442,19.4805195 C27.0535714,17.6314935 27.3555195,15.8279221 28.3474026,14.1607143 C29.5305948,12.1308332 31.4343657,10.6205662 33.6801948,9.93019481 C34.2657897,9.74599555 34.8748474,9.64703733 35.4886364,9.63636364 C36.9935065,9.61038961 38.038961,10.4107143 38.4659091,11.8538961 C38.8587662,13.1883117 38.7224026,14.5275974 38.3571429,15.8538961 C37.8116883,17.8376623 36.8522727,19.5681818 35.1542208,20.8068182 C33.9058442,21.7175325 32.5243506,22.1948052 30.9724026,21.9902597 C30.5698052,21.9366883 30.336039,22.1347403 30.112013,22.4350649 C27.883658,25.4058442 25.6504329,28.3728355 23.4123377,31.336039 L16.4318182,40.5892857 C15.8457792,41.3685065 15.3376623,41.4448052 14.5730519,40.8717532 C13.2873377,39.9074675 13.2564935,39.663961 14.2483766,38.3457792 L20.7922078,29.6720779 Z" id="Shape" fill="#FF0000" fill-rule="nonzero"></path>
                <path d="M26.8668831,30.4285714 C24.3474026,27.5357143 21.8311688,24.6450216 19.3181818,21.7564935 C19.0676699,21.4275518 18.6780818,21.2342585 18.2646104,21.2337662 C16.9659091,21.1883117 15.9350649,20.5844156 15.1688312,19.5438312 C13.5616883,17.3717532 11.9691558,15.1866883 10.3701299,13.0064935 C10.2684454,12.8984549 10.1850963,12.774528 10.1233766,12.6396104 C10.0715806,12.4964014 10.0774007,12.3386775 10.1396104,12.1996753 C10.2905844,11.9837662 10.4350649,12.1347403 10.5633117,12.2775974 C11.525974,13.3506494 12.4935065,14.4172078 13.4545455,15.4902597 C14.1574675,16.275974 14.8538961,17.0681818 15.5535714,17.8571429 C15.6428571,17.9577922 15.7159091,18.0941558 15.8327922,18.137987 C15.992273,18.175293 16.1562841,18.1895073 16.3198052,18.1801948 C16.3198052,18.0275974 16.3847403,17.8425325 16.3198052,17.7305195 C16.1629675,17.4961779 15.987045,17.2751888 15.7938312,17.0698052 C14.3084416,15.2840909 12.8181818,13.5178571 11.3425325,11.7321429 C11.2467532,11.6168831 11.1688312,11.336039 11.2305195,11.2662338 C11.4577922,11.012987 11.586039,11.3003247 11.7175325,11.4285714 C13.3939394,13.2575758 15.0665584,15.0892857 16.7353896,16.9237013 C16.7857143,16.9788961 16.8246753,17.0633117 16.8863636,17.086039 C17.0633117,17.1444805 17.2483766,17.1769481 17.4301948,17.2207792 C17.4123377,17.0340909 17.4626623,16.7954545 17.3668831,16.6720779 C16.7207792,15.8831169 16.0714286,15.1136364 15.4220779,14.3392857 C14.4220779,13.142316 13.4215368,11.9464286 12.4204545,10.7516234 C12.3035714,10.612013 12.0876623,10.4496753 12.3457792,10.2873377 C12.4237013,10.2386364 12.6704545,10.3409091 12.7581169,10.4415584 C14.4604978,12.2813853 16.1558442,14.1320346 17.8441558,15.9935065 C17.9225046,16.1007047 18.0219435,16.1907521 18.1363636,16.2581169 C18.2435065,16.3019481 18.4415584,16.3149351 18.4983766,16.2581169 C18.5819739,16.1453935 18.6083736,16.0001951 18.5698052,15.8652597 C18.4804344,15.6950382 18.3654586,15.5395471 18.2288961,15.4042208 C16.6531385,13.5449134 15.0752165,11.6872294 13.4951299,9.83116883 C13.3668831,9.68181818 13.1704545,9.5487013 13.4155844,9.31818182 C13.6607143,9.08766234 13.7938312,9.28246753 13.9366883,9.42045455 C15.5714286,10.9918831 17.2077922,12.5730519 18.8311688,14.1688312 C19.4811452,14.7742515 20.0871195,15.4252533 20.6444805,16.1168831 C21.1955718,16.8556179 21.4202436,17.7877418 21.2662338,18.6964286 C21.2107115,19.0496291 21.3320538,19.4075889 21.5909091,19.6542208 C26.6590909,25.4594156 31.7245671,31.2700216 36.7873377,37.086039 C36.9732918,37.2767455 37.1214632,37.5009305 37.224026,37.7467532 C37.4074675,38.288961 37.1282468,38.6818182 36.7159091,39.0162338 C36.2288961,39.4123377 35.8019481,39.9902597 35.0535714,39.6461039 C34.833678,39.5238212 34.6409255,39.3581314 34.487013,39.1590909 C31.9426407,36.2521645 29.4025974,33.3419913 26.8668831,30.4285714 Z" id="Shape" fill="#FF0000" fill-rule="nonzero"></path>
            </g>
        </g>
    </g>
</svg>