<svg id="Layer_9" data-name="Layer 9" xmlns="http://www.w3.org/2000/svg" viewBox="0 0 308 356.71"><defs><style>.cls-1{fill:#fff;}.cls-2{fill:red;}</style></defs><title>meal-pin</title><circle class="cls-1" cx="154" cy="154" r="149"/><path class="cls-2" d="M683,514c-84.92,0-154-69.08-154-154s69.08-154,154-154,154,69.08,154,154S767.92,514,683,514Zm0-298c-79.4,0-144,64.6-144,144s64.6,144,144,144,144-64.6,144-144S762.4,216,683,216Z" transform="translate(-529 -206)"/><path class="cls-2" d="M684.61,561.78l32.31-56H649.08l32.31,56A1.86,1.86,0,0,0,684.61,561.78Z" transform="translate(-529 -206)"/><path class="cls-2" d="M657.08,391.07q21-27.86,42-55.68a6.48,6.48,0,0,0,1.05-7.1c-4.48-11.39-2.62-22.5,3.49-32.77a57.62,57.62,0,0,1,32.85-26.06,39.41,39.41,0,0,1,11.14-1.81c9.27-.16,15.71,4.77,18.34,13.66,2.42,8.22,1.58,16.47-.67,24.64-3.36,12.22-9.27,22.88-19.73,30.51-7.69,5.61-16.2,8.55-25.76,7.29-2.48-.33-3.92.89-5.3,2.74q-20.59,27.45-41.27,54.83l-43,57c-3.61,4.8-6.74,5.27-11.45,1.74-7.92-5.94-8.11-7.44-2-15.56Z" transform="translate(-529 -206)"/><path class="cls-2" d="M694.5,395.73Q671.22,369,648,342.31a8.17,8.17,0,0,0-6.49-3.22c-8-.28-14.35-4-19.07-10.41-9.9-13.38-19.71-26.84-29.56-40.27a8.39,8.39,0,0,1-1.52-2.26,3.62,3.62,0,0,1,.1-2.71c.93-1.33,1.82-.4,2.61.48,5.93,6.61,11.89,13.18,17.81,19.79,4.33,4.84,8.62,9.72,12.93,14.58.55.62,1,1.46,1.72,1.73a10.54,10.54,0,0,0,3,.26c0-.94.4-2.08,0-2.77a31.55,31.55,0,0,0-3.24-4.07c-9.15-11-18.33-21.88-27.42-32.88-.59-.71-1.07-2.44-.69-2.87,1.4-1.56,2.19.21,3,1q15.49,16.9,30.91,33.85c.31.34.55.86.93,1,1.09.36,2.23.56,3.35.83-.11-1.15.2-2.62-.39-3.38C632,306.13,628,301.39,624,296.62q-9.24-11.06-18.49-22.1c-.72-.86-2.05-1.86-.46-2.86.48-.3,2,.33,2.54.95q15.73,17,31.33,34.2a6,6,0,0,0,1.8,1.63c.66.27,1.88.35,2.23,0a2.78,2.78,0,0,0,.44-2.42,11.57,11.57,0,0,0-2.1-2.84Q626.73,286,612.13,268.85c-.79-.92-2-1.74-.49-3.16s2.33-.22,3.21.63C624.92,276,635,285.74,645,295.57a115.09,115.09,0,0,1,11.17,12A20.77,20.77,0,0,1,660,323.46a6.71,6.71,0,0,0,2,5.9Q708.83,383,755.61,436.74a13,13,0,0,1,2.69,4.07c1.13,3.34-.59,5.76-3.13,7.82-3,2.44-5.63,6-10.24,3.88a11.44,11.44,0,0,1-3.49-3Q717.93,422.65,694.5,395.73Z" transform="translate(-529 -206)"/></svg>