<svg id="Layer_7" data-name="Layer 7" xmlns="http://www.w3.org/2000/svg" viewBox="0 0 308 357.41"><defs><style>.cls-1{fill:#fff;}.cls-2{fill:red;}</style></defs><title>shelter-pin</title><circle class="cls-1" cx="154" cy="154" r="149"/><path class="cls-2" d="M683,498c-84.92,0-154-69.08-154-154s69.08-154,154-154,154,69.08,154,154S767.92,498,683,498Zm0-298c-79.4,0-144,64.6-144,144s64.6,144,144,144,144-64.6,144-144S762.4,200,683,200Z" transform="translate(-529 -190)"/><path class="cls-2" d="M684.61,546.48l32.31-56H649.08l32.31,56A1.86,1.86,0,0,0,684.61,546.48Z" transform="translate(-529 -190)"/><circle class="cls-2" cx="87.94" cy="177.05" r="12.78"/><path class="cls-2" d="M762.82,398.63H634.24V373.91c0-3.79,4.27-6.86,9.54-6.86h34.58c20.69,0,84.46,13.53,84.46,24.56Z" transform="translate(-529 -190)"/><path class="cls-2" d="M83.06,192.84h61.46a0,0,0,0,1,0,0v15.79a0,0,0,0,1,0,0H83.06a7.9,7.9,0,0,1-7.9-7.9v0A7.9,7.9,0,0,1,83.06,192.84Z"/><path class="cls-2" d="M799.84,318.57,694.29,237.29a17.71,17.71,0,0,0-21.59,0l-105.84,81.5a17.47,17.47,0,0,0-5.89,19.9,18,18,0,0,0,17,11.81h12.39v-8.93a6.11,6.11,0,0,0-6.11-6.11h-6.64A2.66,2.66,0,0,1,576,330.7l105.84-81.5a2.66,2.66,0,0,1,3.24,0l105.84,81.5a2.66,2.66,0,0,1-1.62,4.76h-6.66a6.39,6.39,0,0,0-6.39,6.39v8.65h13a17.47,17.47,0,0,0,16.81-12.17A18,18,0,0,0,799.84,318.57Z" transform="translate(-529 -190)"/><path class="cls-2" d="M779.15,335.46a2.8,2.8,0,0,0-2.8,2.8v61.35c0,5.3-5.11,9.61-11.37,9.61H602c-6.26,0-11.37-4.32-11.37-9.61V338.26a2.8,2.8,0,0,0-2.8-2.8H575.59v64.14c0,12.31,11.85,22.33,26.41,22.33H765c14.56,0,26.41-10,26.41-22.33V335.46Z" transform="translate(-529 -190)"/></svg>