<svg xmlns="http://www.w3.org/2000/svg" xmlns:xlink="http://www.w3.org/1999/xlink" viewBox="0 0 108.48 129.27"><defs><style>.cls-1{fill:url(#radial-gradient);}.cls-2{fill:url(#radial-gradient-2);}.cls-3{fill:#172f3f;}.cls-4{fill:url(#radial-gradient-3);}.cls-5{fill:url(#radial-gradient-4);}.cls-6{fill:url(#radial-gradient-5);}.cls-7{fill:url(#radial-gradient-6);}.cls-8{fill:url(#radial-gradient-7);}.cls-9{fill:url(#radial-gradient-8);}.cls-10{fill:url(#radial-gradient-9);}</style><radialGradient id="radial-gradient" cx="693.13" cy="350.59" r="42.11" gradientUnits="userSpaceOnUse"><stop offset="0" stop-color="#de5b49"/><stop offset="1" stop-color="#de5b49" stop-opacity="0.8"/></radialGradient><radialGradient id="radial-gradient-2" cx="693.08" cy="360.27" r="35.73" gradientUnits="userSpaceOnUse"><stop offset="0" stop-color="#e37b40"/><stop offset="1" stop-color="#e37b40" stop-opacity="0.8"/></radialGradient><radialGradient id="radial-gradient-3" cx="693.05" cy="411.99" r="38.7" gradientUnits="userSpaceOnUse"><stop offset="0" stop-color="#e37b40" stop-opacity="0.7"/><stop offset="0.41" stop-color="#e37b40" stop-opacity="0.85"/><stop offset="0.78" stop-color="#e37b40" stop-opacity="0.96"/><stop offset="1" stop-color="#e37b40"/></radialGradient><radialGradient id="radial-gradient-4" cx="693.08" cy="381.18" r="25.05" gradientUnits="userSpaceOnUse"><stop offset="0" stop-color="#51b295"/><stop offset="1" stop-color="#51b295" stop-opacity="0.8"/></radialGradient><radialGradient id="radial-gradient-5" cx="693.14" cy="410.39" r="16.72" gradientUnits="userSpaceOnUse"><stop offset="0" stop-color="#51b295" stop-opacity="0.7"/><stop offset="0.3" stop-color="#51b295" stop-opacity="0.81"/><stop offset="0.73" stop-color="#51b295" stop-opacity="0.95"/><stop offset="1" stop-color="#51b295"/></radialGradient><radialGradient id="radial-gradient-6" cx="693.08" cy="411.34" r="28.98" gradientUnits="userSpaceOnUse"><stop offset="0" stop-color="#f0ca4d" stop-opacity="0.7"/><stop offset="0.43" stop-color="#f0ca4d" stop-opacity="0.86"/><stop offset="0.78" stop-color="#f0ca4d" stop-opacity="0.96"/><stop offset="1" stop-color="#f0ca4d"/></radialGradient><radialGradient id="radial-gradient-7" cx="693.08" cy="390.21" r="19.66" gradientUnits="userSpaceOnUse"><stop offset="0" stop-color="#39729e" stop-opacity="0.8"/><stop offset="0.61" stop-color="#39729e" stop-opacity="0.95"/><stop offset="1" stop-color="#39729e"/></radialGradient><radialGradient id="radial-gradient-8" cx="693.08" cy="370.47" r="30.46" gradientUnits="userSpaceOnUse"><stop offset="0" stop-color="#f0ca4d"/><stop offset="1" stop-color="#f0ca4d" stop-opacity="0.8"/></radialGradient><radialGradient id="radial-gradient-9" cx="693.08" cy="413.22" r="48.35" gradientUnits="userSpaceOnUse"><stop offset="0" stop-color="#de5b49" stop-opacity="0.7"/><stop offset="0.4" stop-color="#de5b49" stop-opacity="0.85"/><stop offset="0.77" stop-color="#de5b49" stop-opacity="0.96"/><stop offset="1" stop-color="#de5b49"/></radialGradient></defs><title>logo</title><g id="Layer_2" data-name="Layer 2"><path class="cls-1" d="M747.17,374.74a5,5,0,0,0-9.61.87c-2.58-21.88-21.8-38.76-44.48-38.76a44.78,44.78,0,0,0-44.37,38.73,5.05,5.05,0,0,0-9.63-.82,54.22,54.22,0,0,1,54-49.19C721.32,325.57,745.11,347.17,747.17,374.74Z" transform="translate(-638.84 -325.57)"/><path class="cls-2" d="M737.85,381.62c0,.69,0,1.37-.1,2a4.48,4.48,0,0,0-8.5-.36v0c.45-20-16.2-36.17-36.17-36.17a36.17,36.17,0,0,0-36.18,36.17v0a4.5,4.5,0,0,0-8.54.39c0-.69-.06-1.37-.06-2.07,0-1,0-2,.1-3s.17-2.06.31-3.07a44.78,44.78,0,0,1,44.37-38.73c22.68,0,41.9,16.88,44.48,38.76.11.92.19,1.86.24,2.81S737.87,380.54,737.85,381.62Z" transform="translate(-638.84 -325.57)"/><ellipse class="cls-3" cx="54.24" cy="64.64" rx="8.85" ry="8.86"/></g><g id="Layer_5" data-name="Layer 5"><path class="cls-4" d="M737.75,383.67h0c-.06,1.08-.16,2.15-.31,3.21h0c-4.3,33.34-40.77,56.67-44.36,56.67-3.12,0-40.61-25-44.45-56.73h0c-.14-1-.23-2.08-.27-3.13h0a4.5,4.5,0,0,1,8.54-.39c0,1,0,1.91.13,2.85v0a36.74,36.74,0,0,0,1.47,7.67c.29,1,.63,2,1,3,7.94,21,31.36,36.44,33.57,36.44,2.56,0,25.64-14.57,33.53-36.39h0c.39-1.07.74-2.16,1-3.26A42.33,42.33,0,0,0,729.1,386q.12-1.32.15-2.67a4.48,4.48,0,0,1,8.5.36Z" transform="translate(-638.84 -325.57)"/><path class="cls-5" d="M720,385a30.21,30.21,0,0,1-.86,6.5c-.2.85-.44,1.68-.7,2.5a41,41,0,0,1-5,10.16,4.3,4.3,0,0,0,.17-1.2,4.37,4.37,0,0,0-7-3.49A24,24,0,0,0,711,386.78a17.87,17.87,0,1,0-35.74,0,22.39,22.39,0,0,0,4.32,12.45,4.33,4.33,0,0,0-2.43-.74,4.4,4.4,0,0,0-4.39,4.39,4.09,4.09,0,0,0,.18,1.22,40.69,40.69,0,0,1-5.16-10c-.3-.89-.57-1.78-.78-2.69h0a27.52,27.52,0,0,1-.77-6.35,26.91,26.91,0,0,1,26.91-26.91C707.94,358.14,720.32,370.19,720,385Z" transform="translate(-638.84 -325.57)"/><path class="cls-6" d="M713.57,403a4.3,4.3,0,0,1-.17,1.2c-.55.82-1.13,1.62-1.71,2.39-7.38,9.71-17.2,15.68-18.61,15.68-1.21,0-11-6.22-18.4-15.75-.62-.78-1.21-1.6-1.79-2.43a4.09,4.09,0,0,1-.18-1.22,4.4,4.4,0,0,1,4.39-4.39,4.33,4.33,0,0,1,2.43.74,0,0,0,0,1,0,0c.55.81,1.13,1.59,1.73,2.33a0,0,0,0,1,0,0c4.88,6,11,9.93,11.8,9.93s7.14-3.77,12-9.94h0c.52-.66,1-1.34,1.49-2a4.37,4.37,0,0,1,7,3.49Z" transform="translate(-638.84 -325.57)"/><path class="cls-7" d="M727.67,393.66c-.31,1.1-.66,2.19-1,3.26h0c-7.89,21.82-31,36.39-33.53,36.39-2.21,0-25.63-15.42-33.57-36.44-.38-1-.72-2-1-3a4.61,4.61,0,0,1,8.44-2.44h0c.21.91.48,1.8.78,2.69a40.69,40.69,0,0,0,5.16,10c.58.83,1.17,1.65,1.79,2.43,7.42,9.53,17.19,15.75,18.4,15.75,1.41,0,11.23-6,18.61-15.68.58-.77,1.16-1.57,1.71-2.39a41,41,0,0,0,5-10.16c.26-.82.5-1.65.7-2.5a4.62,4.62,0,0,1,8.54,2.11Z" transform="translate(-638.84 -325.57)"/><path class="cls-8" d="M693.08,368.91a17.87,17.87,0,0,0-17.87,17.87,22.39,22.39,0,0,0,4.32,12.45,0,0,0,0,1,0,0c.55.81,1.13,1.59,1.73,2.33a0,0,0,0,1,0,0c4.88,6,11,9.93,11.8,9.93s7.14-3.77,12-9.94h0c.52-.66,1-1.34,1.49-2A24,24,0,0,0,711,386.78,17.73,17.73,0,0,0,693.08,368.91Zm0,30.15a8.86,8.86,0,1,1,8.85-8.85A8.85,8.85,0,0,1,693.08,399.06Z" transform="translate(-638.84 -325.57)"/><path class="cls-9" d="M729.25,383.27v0q0,1.35-.15,2.67a42.33,42.33,0,0,1-1.43,7.68,4.62,4.62,0,0,0-8.54-2.11A30.21,30.21,0,0,0,720,385c.33-14.86-12-26.91-26.91-26.91A26.91,26.91,0,0,0,666.17,385a27.52,27.52,0,0,0,.77,6.35,4.61,4.61,0,0,0-8.44,2.44,36.74,36.74,0,0,1-1.47-7.67v0c-.09-.94-.13-1.89-.13-2.85v0a36.17,36.17,0,0,1,36.18-36.17C713,347.1,729.7,363.3,729.25,383.27Z" transform="translate(-638.84 -325.57)"/><path class="cls-10" d="M747.31,378.08c0,.57,0,1.15,0,1.73-1,43.76-49.65,75-54.24,75-4,0-54.23-33.62-54.23-75,0-.64,0-1.27,0-1.9,0-1.06.1-2.11.2-3.15a5.05,5.05,0,0,1,9.63.82c-.14,1-.25,2-.31,3.07s-.1,2-.1,3c0,.7,0,1.38.06,2.07h0c0,1,.13,2.1.27,3.13h0c3.84,31.76,41.33,56.73,44.45,56.73,3.59,0,40.06-23.33,44.36-56.67h0c.15-1.06.25-2.13.31-3.21h0c0-.68.08-1.36.1-2,0-1.08,0-2.15,0-3.2s-.13-1.89-.24-2.81a5,5,0,0,1,9.61-.87v0C747.26,375.85,747.31,377,747.31,378.08Z" transform="translate(-638.84 -325.57)"/></g></svg>